<mxfile host="65bd71144e">
    <diagram id="xAjPSacSkTuPSvtiokrA" name="Page-1">
        <mxGraphModel dx="1204" dy="789" grid="1" gridSize="10" guides="1" tooltips="1" connect="1" arrows="1" fold="1" page="1" pageScale="1" pageWidth="827" pageHeight="1169" math="0" shadow="0">
            <root>
                <mxCell id="0"/>
                <mxCell id="1" parent="0"/>
                <mxCell id="3" value="E2E" style="verticalLabelPosition=middle;verticalAlign=middle;html=1;shape=mxgraph.basic.acute_triangle;dx=0.5;labelPosition=center;align=center;spacing=0;spacingTop=8;" vertex="1" parent="1">
                    <mxGeometry x="70" y="65" width="100" height="40" as="geometry"/>
                </mxCell>
                <mxCell id="5" value="Integrate" style="shape=trapezoid;perimeter=trapezoidPerimeter;whiteSpace=wrap;html=1;fixedSize=1;size=20;" vertex="1" parent="1">
                    <mxGeometry x="50" y="105" width="140" height="75" as="geometry"/>
                </mxCell>
                <mxCell id="6" value="Unit" style="shape=trapezoid;perimeter=trapezoidPerimeter;whiteSpace=wrap;fixedSize=1;size=50;rotation=0;html=1;direction=west;" vertex="1" parent="1">
                    <mxGeometry x="50" y="180" width="140" height="50" as="geometry"/>
                </mxCell>
                <mxCell id="7" value="Static" style="shape=trapezoid;perimeter=trapezoidPerimeter;whiteSpace=wrap;html=1;fixedSize=1;size=20;" vertex="1" parent="1">
                    <mxGeometry x="80" y="230" width="80" height="30" as="geometry"/>
                </mxCell>
                <mxCell id="13" value="" style="endArrow=none;html=1;" edge="1" parent="1">
                    <mxGeometry width="50" height="50" relative="1" as="geometry">
                        <mxPoint x="174" y="65" as="sourcePoint"/>
                        <mxPoint x="300" y="65" as="targetPoint"/>
                    </mxGeometry>
                </mxCell>
                <mxCell id="14" value="" style="endArrow=none;html=1;" edge="1" parent="1">
                    <mxGeometry width="50" height="50" relative="1" as="geometry">
                        <mxPoint x="184" y="104" as="sourcePoint"/>
                        <mxPoint x="300" y="104" as="targetPoint"/>
                    </mxGeometry>
                </mxCell>
                <mxCell id="15" value="" style="endArrow=none;html=1;" edge="1" parent="1">
                    <mxGeometry width="50" height="50" relative="1" as="geometry">
                        <mxPoint x="200" y="180" as="sourcePoint"/>
                        <mxPoint x="300" y="180" as="targetPoint"/>
                    </mxGeometry>
                </mxCell>
                <mxCell id="16" value="" style="endArrow=none;html=1;" edge="1" parent="1">
                    <mxGeometry width="50" height="50" relative="1" as="geometry">
                        <mxPoint x="180" y="229" as="sourcePoint"/>
                        <mxPoint x="300" y="229" as="targetPoint"/>
                    </mxGeometry>
                </mxCell>
                <mxCell id="17" value="View, 複合Component&lt;br style=&quot;font-size: 10px;&quot;&gt;ツール：Vitest" style="text;html=1;strokeColor=none;fillColor=none;align=left;verticalAlign=top;whiteSpace=wrap;rounded=0;fontSize=10;spacing=0;" vertex="1" parent="1">
                    <mxGeometry x="310" y="105" width="130" height="40" as="geometry"/>
                </mxCell>
                <mxCell id="18" value="単純Component, Store&lt;br style=&quot;font-size: 10px;&quot;&gt;ツール：Vitest" style="text;html=1;strokeColor=none;fillColor=none;align=left;verticalAlign=top;whiteSpace=wrap;rounded=0;fontSize=10;spacing=0;" vertex="1" parent="1">
                    <mxGeometry x="310" y="180" width="130" height="40" as="geometry"/>
                </mxCell>
                <mxCell id="19" value="フロント-バック, フロントエンド完結&lt;br&gt;ツール：Cypress" style="text;html=1;strokeColor=none;fillColor=none;align=left;verticalAlign=top;whiteSpace=wrap;rounded=0;fontSize=10;spacing=0;labelPosition=center;verticalLabelPosition=middle;horizontal=1;" vertex="1" parent="1">
                    <mxGeometry x="310" y="65" width="190" height="40" as="geometry"/>
                </mxCell>
                <mxCell id="20" value="TypeScript, CSS全般&lt;br style=&quot;font-size: 10px&quot;&gt;ツール：ESlint, Stylelint" style="text;html=1;strokeColor=none;fillColor=none;align=left;verticalAlign=top;whiteSpace=wrap;rounded=0;fontSize=10;spacing=0;" vertex="1" parent="1">
                    <mxGeometry x="310" y="230" width="130" height="40" as="geometry"/>
                </mxCell>
            </root>
        </mxGraphModel>
    </diagram>
</mxfile>